<svg width="58" height="66" viewBox="0 0 58 66" fill="none" xmlns="http://www.w3.org/2000/svg">
<path d="M57.7554 0.939453L52.4106 58.8275L29.2554 65.0604L6.10014 58.8275L0.755371 0.939453H57.7554ZM46.9844 12.7045H29.2309H11.1679L12.0315 19.695H29.2309H30.2005L29.2309 20.0943L12.6589 26.9952L13.2048 33.831L29.2309 33.8798L37.8184 33.9043L37.2644 43.0132L29.2228 45.2782V45.2701L29.1576 45.2864L21.393 43.3228L20.9205 37.6684H20.896H13.6936H13.6692L14.6143 48.5861L29.2228 52.9043V52.8961L29.2472 52.9043L43.7905 48.6839L45.6726 27.0033H29.2309H29.1902L29.2309 26.9871L46.2755 19.7032L46.9844 12.7045Z" fill="black"/>
</svg>
